<?xml version="1.0" encoding="UTF-8" standalone="no"?>
<!DOCTYPE svg PUBLIC "-//W3C//DTD SVG 1.1//EN" "http://www.w3.org/Graphics/SVG/1.1/DTD/svg11.dtd">
<svg width="100%" height="100%" viewBox="0 0 80 50" version="1.1" xmlns="http://www.w3.org/2000/svg" xmlns:xlink="http://www.w3.org/1999/xlink" xml:space="preserve" xmlns:serif="http://www.serif.com/" style="fill-rule:evenodd;clip-rule:evenodd;stroke-linecap:round;stroke-miterlimit:3;">
    <g transform="matrix(1,0,0,1,-31.6951,-110.315)">
        <g id="Layer-1" serif:id="Layer 1">
            <path d="M0,111C-15.334,126.333 -33.834,134 -55.5,134C-77.167,134 -95.667,126.333 -111,111C-126.333,95.667 -134,77.167 -134,55.5C-134,33.833 -126.333,15.333 -111,0C-95.667,-15.333 -77.167,-23 -55.5,-23C-33.834,-23 -15.334,-15.333 0,0C15.333,15.333 23,33.833 23,55.5C23,77.167 15.333,95.667 0,111Z" style="fill:none;stroke:black;stroke-width:7px;"/>
        </g>
    </g>
    <g id="Layer-11" serif:id="Layer 1" transform="matrix(1,0,0,1,-236.506,-214.849)">
        <g transform="matrix(1,0,0,1,211.15,140.399)">
            <path d="M0,75.001C-1.133,70.067 -1.7,64.917 -1.7,59.551C-1.7,41.317 4.733,25.751 17.6,12.851C30.5,-0.016 46.067,-6.449 64.3,-6.449C65.139,-6.449 65.972,-6.433 66.8,-6.399C83.958,-5.84 98.675,0.576 110.95,12.851C123.85,25.751 130.3,41.317 130.3,59.551C130.3,64.317 129.867,68.9 129,73.301C127.466,73.101 125.9,73.001 124.3,73.001C116.833,73.101 110.4,75.601 105,80.501C102.034,79.501 98.883,79.018 95.55,79.051C91.85,79.117 88.4,79.734 85.2,80.9C80.004,76.24 73.871,73.807 66.8,73.601C66.386,73.597 65.97,73.597 65.55,73.601C58.083,73.7 51.633,76.184 46.2,81.051C43.233,80.084 40.083,79.634 36.75,79.7C33.083,79.734 29.65,80.317 26.45,81.45C20.917,76.518 14.333,74.117 6.7,74.251C4.367,74.251 2.133,74.501 0,75.001"/>
        </g>
        <g transform="matrix(1,0,0,1,231.2,231.1)">
            <path d="M0,17.15C1.966,15.75 4.1,14.584 6.4,13.65M-0.4,17.45C-0.267,17.35 -0.133,17.25 0,17.15C-0.7,16.65 -1.417,16.2 -2.15,15.8M-15.35,-2.3C-14.583,-2.433 -13.784,-2.5 -12.95,-2.5C-10.184,-2.5 -7.684,-1.916 -5.45,-0.75M0,-5.7C-3.867,-8.5 -8.284,-9.85 -13.25,-9.75C-14.983,-9.75 -16.633,-9.567 -18.2,-9.2M53.35,21.6C53.816,21.067 54.283,20.534 54.75,20C56.05,18.7 57.399,17.55 58.8,16.55M62.95,32.35C63.483,31.516 64.116,30.716 64.85,29.95C65.616,29.216 66.416,28.55 67.25,27.95C69.184,26.617 71.3,25.784 73.6,25.45C74.333,25.317 75.1,25.266 75.899,25.3C76.1,25.266 76.316,25.284 76.55,25.35C77.184,25.35 77.816,25.4 78.45,25.5M53.95,34.2C54.816,31.2 56.35,28.45 58.55,25.95C58.85,25.516 59.184,25.117 59.55,24.75C60.883,23.417 62.283,22.284 63.75,21.35C65.717,20.117 67.833,19.183 70.1,18.55C71.833,18.15 73.649,17.933 75.55,17.9C77.083,17.9 78.566,18.05 80,18.35C82.033,18.683 83.967,19.3 85.8,20.2M12.1,26.7C12.966,26.4 13.867,26.183 14.8,26.05C15.566,25.95 16.333,25.9 17.1,25.9C17.333,25.867 17.55,25.867 17.75,25.9C20.117,25.9 22.3,26.433 24.3,27.5C25.7,28.2 27.017,29.15 28.25,30.35C29.183,31.183 29.933,32.084 30.5,33.05C30.6,33.216 30.716,33.4 30.85,33.6M32.9,16.4C34.533,17.466 36.083,18.733 37.55,20.2C37.983,20.667 38.417,21.117 38.85,21.55M4.9,21.9C6.9,20.667 9.033,19.75 11.3,19.15C13.066,18.75 14.9,18.55 16.8,18.55C18.3,18.55 19.767,18.667 21.2,18.9C23.566,19.3 25.8,20.084 27.9,21.25C29.6,22.216 31.25,23.466 32.85,25C33.117,25.266 33.383,25.55 33.65,25.85C36.083,28.483 37.783,31.417 38.75,34.65M46.899,34.8C47.8,29.867 49.95,25.466 53.35,21.6C51.334,20.504 49.135,19.903 46.75,19.8C46.453,19.796 46.152,19.796 45.85,19.8C43.283,19.834 40.95,20.417 38.85,21.55C42.417,25.45 44.7,29.883 45.7,34.85M32.9,-6.45C30.733,-7.784 28.483,-8.85 26.15,-9.65M43.7,5.85C42.5,3.25 40.883,0.85 38.85,-1.35M3.45,11.3C4.483,12 5.466,12.784 6.4,13.65C9.6,12.483 13.033,11.883 16.7,11.85C20.033,11.784 23.183,12.233 26.15,13.2M-3.25,7.95C-0.917,8.75 1.316,9.867 3.45,11.3C4.15,10 5.033,8.784 6.1,7.65C6.833,6.917 7.617,6.233 8.45,5.6C10.35,4.334 12.466,3.534 14.8,3.2C15.566,3.067 16.333,3 17.1,3C17.333,2.966 17.55,2.966 17.75,3C20.117,3 22.3,3.534 24.3,4.6C25.7,5.3 27.017,6.266 28.25,7.5C29.117,8.266 29.833,9.1 30.4,10M6.4,-9.25C4.1,-8.284 1.966,-7.1 0,-5.7C-1.4,-4.7 -2.75,-3.55 -4.05,-2.25C-4.517,-1.75 -4.983,-1.25 -5.45,-0.75C-7.083,1.183 -8.434,3.233 -9.5,5.4C-9.7,5.766 -9.883,6.15 -10.05,6.55C-9.85,6.55 -9.667,6.567 -9.5,6.6C-7.333,6.8 -5.25,7.25 -3.25,7.95C-2.45,6.417 -1.467,4.966 -0.3,3.6C0.066,3.2 0.433,2.817 0.8,2.45C2.1,1.084 3.466,-0.05 4.9,-0.95C6.9,-2.216 9.033,-3.133 11.3,-3.7C13.066,-4.1 14.9,-4.3 16.8,-4.3C18.3,-4.3 19.767,-4.2 21.2,-4C23.566,-3.6 25.8,-2.8 27.9,-1.6C29.6,-0.666 31.25,0.584 32.85,2.15C33.117,2.417 33.383,2.683 33.65,2.95C34.85,4.284 35.867,5.683 36.7,7.15M58.8,-6.3C55.276,-8.843 51.26,-10.202 46.75,-10.375C46.354,-10.394 45.953,-10.403 45.55,-10.4C40.75,-10.367 36.533,-9.05 32.9,-6.45C34.533,-5.383 36.083,-4.117 37.55,-2.65C37.983,-2.183 38.417,-1.75 38.85,-1.35C40.95,-2.45 43.283,-3.017 45.85,-3.05C46.152,-3.054 46.453,-3.054 46.75,-3.05C49.135,-2.951 51.334,-2.367 53.35,-1.3M84.95,-10.2C87.316,-9.466 89.566,-8.416 91.7,-7.05M65.149,13.1C68.35,11.9 71.8,11.266 75.5,11.2C78.833,11.167 81.983,11.65 84.95,12.65M89.2,9.45C87.7,10.383 86.283,11.45 84.95,12.65C87.083,13.317 89.116,14.233 91.05,15.4M48.8,5.9C48.116,5.837 47.434,5.796 46.75,5.775C46.333,5.758 45.916,5.75 45.5,5.75C44.899,5.75 44.3,5.784 43.7,5.85C41.267,6.016 38.933,6.45 36.7,7.15C34.5,7.817 32.4,8.766 30.4,10C28.9,10.933 27.483,12 26.15,13.2C28.483,14 30.733,15.067 32.9,16.4C36.533,13.834 40.75,12.534 45.55,12.5L45.75,12.5C46.099,12.5 46.432,12.516 46.75,12.55L46.8,12.55C51.3,12.716 55.3,14.05 58.8,16.55C60.767,15.15 62.883,14 65.149,13.1C64.217,12.233 63.233,11.45 62.2,10.75M55.6,7.35C57.899,8.15 60.1,9.284 62.2,10.75C62.866,9.45 63.75,8.233 64.85,7.1C65.616,6.367 66.416,5.7 67.25,5.1C69.184,3.766 71.3,2.933 73.6,2.6C74.333,2.466 75.1,2.4 75.899,2.4C76.1,2.4 76.316,2.417 76.55,2.45C78.916,2.45 81.116,2.966 83.149,4C84.517,4.733 85.833,5.683 87.1,6.85C87.899,7.65 88.6,8.516 89.2,9.45C91.2,8.216 93.316,7.25 95.55,6.55M65.149,-9.8C62.883,-8.867 60.767,-7.7 58.8,-6.3C57.399,-5.3 56.05,-4.166 54.75,-2.9C54.283,-2.333 53.816,-1.8 53.35,-1.3C51.416,0.933 49.899,3.334 48.8,5.9C51.166,6.1 53.434,6.584 55.6,7.35C56.399,5.85 57.383,4.417 58.55,3.05C58.85,2.617 59.184,2.216 59.55,1.85C60.883,0.516 62.283,-0.6 63.75,-1.5C65.717,-2.767 67.833,-3.7 70.1,-4.3C71.833,-4.7 73.649,-4.916 75.55,-4.95C77.083,-4.95 78.566,-4.817 80,-4.55C82.366,-4.15 84.583,-3.367 86.649,-2.2C88.416,-1.234 90.066,0.034 91.6,1.6C91.899,1.867 92.2,2.133 92.5,2.4C93.7,3.7 94.717,5.084 95.55,6.55C96.717,6.183 97.934,5.883 99.2,5.65M97.649,-1.85C98.983,-0.416 100.133,1.1 101.1,2.7M107.25,-10.8C106.283,-10.9 105.3,-10.95 104.3,-10.95C99.533,-10.883 95.333,-9.583 91.7,-7.05C93.333,-5.95 94.883,-4.666 96.35,-3.2C96.816,-2.8 97.25,-2.35 97.649,-1.85C99.649,-2.984 101.916,-3.567 104.45,-3.6M-20.05,-15.7C-17.917,-16.2 -15.684,-16.45 -13.35,-16.45C-5.717,-16.583 0.867,-14.183 6.4,-9.25C9.6,-10.383 13.033,-10.966 16.7,-11C20.033,-11.067 23.183,-10.617 26.15,-9.65C31.583,-14.517 38.033,-17 45.5,-17.1C45.92,-17.104 46.336,-17.104 46.75,-17.1C53.82,-16.894 59.954,-14.46 65.149,-9.8C68.35,-10.966 71.8,-11.583 75.5,-11.65C78.833,-11.683 81.983,-11.2 84.95,-10.2C90.35,-15.1 96.783,-17.6 104.25,-17.7C105.85,-17.7 107.416,-17.6 108.95,-17.4" style="fill:none;stroke:black;stroke-width:2px;"/>
        </g>
        <g transform="matrix(1,0,0,1,330.95,146)">
            <path d="M0,111C-15.334,126.333 -33.834,134 -55.5,134C-77.167,134 -95.667,126.333 -111,111C-126.333,95.667 -134,77.167 -134,55.5C-134,33.833 -126.333,15.333 -111,0C-95.667,-15.333 -77.167,-23 -55.5,-23C-33.834,-23 -15.334,-15.333 0,0C15.333,15.333 23,33.833 23,55.5C23,77.167 15.333,95.667 0,111Z" style="fill:none;stroke:black;stroke-width:7px;"/>
        </g>
    </g>
</svg>
